# xmcd
#
# Track frame offsets:
#	150
#	6923
#	40358
#	58055
#	85980
#	107633
#	134145
#	141083
#	173080
#	200465
#	222663
#	242670
#
# Disc length: 3263 seconds
#
# Revision: 1
# Processed by: cddbd v1.5PL3 Copyright (c) Steve Scherf et al.
# Submitted via: CDex 1.50Beta5
#
DISCID=b50cbd0c
DTITLE=こだま和文 - STARS
DYEAR=2000
DGENRE=Other
TTITLE0=GATE OF PLANET(INTRODUCTION)
TTITLE1=EARTH
TTITLE2=Herb Yard
TTITLE3=MOON
TTITLE4=ROMANCE
TTITLE5=FUNKY PLANET
TTITLE6=45F
TTITLE7=STARS
TTITLE8=MARS
TTITLE9=月光ワルツ(こだま和文 meets UA)
TTITLE10=Waveless Wave(Dub Station on Philharmonic Version)
TTITLE11=OUT OF PLANET
EXTD=
EXTT0=
EXTT1=
EXTT2=
EXTT3=
EXTT4=
EXTT5=
EXTT6=
EXTT7=
EXTT8=
EXTT9=
EXTT10=
EXTT11=
PLAYORDER=
